<?xml version="1.0" encoding="UTF-8"?>
<svg version="1.1" viewBox="0 0 2048 1741" width="542" height="461" xmlns="http://www.w3.org/2000/svg">
<path transform="translate(1850,72)" d="m0 0h2v690l-2 26-4 22-7 27-7 20-12 26-11 19-15 22-11 13-7 8-22 22-13 10-19 14-26 15-26 12-26 8-26 6-35 5-100 10-484 48-36 4-3 1-7 8-9 11-9 10-9 11-12 14-9 10-8 10-9 10-9 11-12 14-13 15-9 11-10 11-8 10-10 11-8 10-10 11-9 11-24 28-9 11-11 12-8 10-10 11-8 10-10 11-11 14-12 13-9 11-9 10-9 11-12 14-13 15-9 11-10 11-8 10-10 11-9 11-12 14-13 15-12 14-13 15-9 11-9 10-9 11-9 10-8 10-10 11-9 11-9 10-12 14-12 15h-2l2-10 10-34 12-42 11-38 17-59 30-104 14-48 26-90 17-59 16-56 9-31-16 1-467 45h-8v-540l3-27 5-26 8-30 10-27 10-23 11-21 13-21 11-16 14-18 12-14 23-23 8-7 12-10 16-12 21-14 23-13 16-8 21-9 30-10 28-7 38-7 418-69 62-10 78-13 254-42 67-11 182-30 182-30 49-8 16-2-1 11-10 61-15 75-12 52-15 59-9 31-12 35-13 30-8 17-13 23-14 22-9 12-10 13-13 15-20 20-11 9-16 13-20 14-23 13-24 13-31 14-27 10-35 12-44 12-44 11-42 9-36 9-36 11-41 15-25 11-29 14-24 13-20 12-17 12-18 14-10 9-8 7-9 8v-3l8-12 12-14 9-11 14-15 12-13 13-12 11-9 13-11 18-13 26-17 17-10 25-13 37-16 31-12 27-9 48-15 49-15 42-14 29-12 16-7 16-8 20-11 15-10 18-13 13-11 8-7 18-18 9-11 12-14 11-15 11-17 11-19 12-24 10-26 7-23 6-29 3-22 1-18v-23l-2-26-4-26-2-7-4 5-12 19-14 19-13 16-9 10-7 8-9 10-15 14-22 18-18 13-26 16-26 14-21 11-38 16-29 11-29 10-40 13-30 10-29 10-37 13-27 11-27 12-30 14-22 12-22 13-17 11-16 11-16 12-18 14-15 14-10 9-20 20-9 11-12 14-8 11-13 18-10 16-12 20-10 18-15 33-9 23-9 25-10 35-7 31-6 35-4 32-2 31v51l14-11 15-10 25-12 25-8 28-7 45-7 37-4 46-3 24-1 205-1 30-2 36-4 33-5 29-6 29-8 22-7 19-7 25-11 21-10 21-12 20-13 16-12 13-11 11-9 21-21 8-10 11-13 10-14 13-20 9-15 13-25 10-24 10-30 14-49 17-69 19-88 18-90 17-89 9-50 10-55 13-78zm-969 455-16 3-15 6-13 9-11 11-7 10-7 14-4 16v23l5 19 8 15 7 9 9 9 14 9 12 5h3l8-14 13-22 12-18 12-17 9-12 12-14 8-10 9-9 5-6-1-5-9-10-12-9-14-7-14-4-7-1zm-292 66-16 4-13 7-13 11-8 9-8 16-4 13v24l4 15 7 14 8 10 7 7 11 7 11 5 17 4h16l17-4 16-8 13-11 8-10 6-11 4-12 1-5v-22l-3-14-8-16-8-10-10-9-11-7-13-5-9-2zm-288 65-15 4-11 6-11 9-8 10-8 16-3 16v8l4 20 8 15 11 12 10 7 12 5 14 3h14l14-3 14-6 10-8 8-8 8-14 4-13 1-6v-12l-2-12-4-11-6-11-11-12-10-7-12-5-12-3z" fill="#CD5577"/>
<path transform="translate(1850,72)" d="m0 0h2v690l-2 26-4 22-7 27-7 20-12 26-11 19-15 22-11 13-7 8-22 22-13 10-19 14-26 15-26 12-26 8-26 6-35 5-100 10-484 48-36 4-3 1-7 8-9 11-9 10-9 11-12 14-9 10-8 10-9 10-9 11-12 14-13 15-9 11-10 11-8 10-10 11-8 10-10 11-9 11-24 28-9 11-11 12-8 10-10 11-8 10-10 11-11 14-12 13-9 11-9 10-9 11-12 14-13 15-9 11-10 11-8 10-10 11-9 11-12 14-13 15-12 14-13 15-9 11-9 10-9 11-9 10-8 10-10 11-9 11-9 10-12 14-12 15h-2l2-10 10-34 12-42 11-38 17-59 30-104 14-48 26-90 17-59 16-56 9-31-16 1-467 45h-8l1-305 1-18 3-3 2 5 1 3h2l2 6 2-2 1 5 1-7 1-1-2-2h2l1-2 5-3 2 1v-2h-2l1-3 5 1 3 1 2-8 2-2 4 1v2h2l2 7 1-2 6-2 3 6 6-2 1-2h2l2-4h4l1 3 6-1 3 1 4-1 4-2v-2h2l-1-4 6-2 7-1 1-4 1-3 2 1 1-2 3-1h2l3-7h4l3 8 10 3 5 1 6 2 4 4 6-1 5 7 7 2h4v2h6l9 2 6 1 7 1h10l5 1v2h6l1-1h9l1-2 2 1h6l4-1 24-3 7-2-1-4 5-4 9-2 2-2 6 3 2 5 6 2 2-3h3l3 1 4-3h8l6-1v-2l4-2v3l3-1 1-2h11v-2l7-1 1-3 9-1-2-5h3l2 1v2l10 1 5-1 1-6 6 1-1 3 2 3 5-1 5-2 4 2 13 2 1 1 1-3h3v-3l3-1 2 5 3 3 2 4 1-2 3 1 3 6 2 1 3 1 1-6 6 2v2l3 1 5 1v3l6-2-1-5h-2v-2h-2l-3-5h6l4 3h5v2l8 1v2h7v-3l2 1-1 3 7 1 1-2 5 1 4-1v4h-1l-2 8 9 2 6-2h4l1-5h3l1-5 5-2 2-4 4-3h3l2-4 1 3h3l-1 10 4-3 1-4h2l2 2 5-2 4-3h3l1 5h4l-3-3 3-1h3 2l2-3h2l1-3 7 1-1-1-4-2 5-4h4v2h4l1 3-4 1 1 2 7-1v-3l13-2 3 1 1 2 1-2h2v2h2l3 4 3-2 4 1 5 1 5-5 4-1 3 7 4-2 5 2h2l2-3 2-2 1-4 9-2 3-2h4l2-4 5-1 2 3 2-2 1 2-1 3h5v-3h2v-2h2l1-2 2 5v3l3-3 1-3h3l1 3-1 2h-2l2 2 4-3h2l1-2v2l7-1h3l1-5 3-3 1 7 4-1 2 5v6l-2 7-1 7-2 4-2 8v26l-5 36-2 20-1 19v51l14-11 15-10 25-12 25-8 28-7 45-7 37-4 46-3 24-1 205-1 30-2 36-4 33-5 29-6 29-8 22-7 19-7 25-11 21-10 21-12 20-13 16-12 13-11 11-9 21-21 8-10 11-13 10-14 13-20 9-15 13-25 10-24 10-30 14-49 17-69 19-88 18-90 17-89 9-50 10-55 13-78z" fill="#9F38A6"/>
<path transform="translate(202,429)" d="m0 0 3 3-1 4-2 3h-2v2h-2l-2 5h-2l-1 6h-2l-1 5-5 6v6l-5 8-2 10 5-3h2l2-4h3l2-4 3-1 1-2h6v-2h6l2-4 3 2v3l3-3 1-2 7-1-3 7-2 2 3-1 3-3h2l-1 4 10-8h3l2-5 2-2h3v4h-2v2l-4 1v2l-5 1v3l11-8 4-4 5-1 3-4h12l4-4 11-3 4-3h2l12-3 14-1-3 3h-2l-1 2-6-2-2 5-9 2-5-1v2l-9 2-7 3-2 2 9-2 5-2 16-1 5-1h8l4 2v3h-3v2l15 1 4 2h7l6 3-3 3-2-3-4-1v7l2 2-1 4 1 4-1 2 12-3 2 3v2h7v2l9-3 7 2 10-1 2 1h7v4l-4 1 3 4 1 4-1 3 5 1-1 2h-6l1 2h7l1 3-1 2 3-2h13l3 2h7l6 1 6-3 7-1 3-1v-2l7-2v-3h4l1 2h2l2-2 1 3h-2v2l-5 1-2-1v3l3 1 4-2h8l1-2 6 1 4-1 3-3h7v-2l11-2 4 1 1-3h3l2-5h-3v-2l7-1 8 4 3 1-2 5 6-2v-4l12 2v2h2v2h2l1 2 11-1 9-1 1 1h11l1-2 5-6 5 1 1-2 9-1v2l14 1v-2l8 1 5-2 7 1v-2l7 1 3 4-1 4h3v-2l9-4h5v2h2v2l6-2v2l6-1h2v2h2v3h2l1-3h2l1-2v2l4 1 4-4h6l4-4h4 3l2 3 1 3h3l2-4 7 2 3-1v-2h3l2 4 6-1 6 2 2-2h5l1 2 4-1 3 1 5-2h3l-3 6 7-2v-2l8-1h2l2-6 7-3 5-2 3-5 4-1 1 5-1 2 3-3h2v-3l10-2 4-2 4 5 3 2 2 6 6 2 3-1v-2l3-1 2 4v4l4-1 2-3 1 3 7-1 1-3 3 1-1 4 6-1v2l3 1 3-1h5l2-3 3 1 4-2 4 1 3-1v-2l9-3 9 2h2l1-2 3 1 1 1 1-3h2v2l4 1 7-3 12 2h16l6-1 5 1 1-2h8l5-4 1 2 12-2 2 2 5-1 3-1v6l7-1 5-6 2 1v5l1-2 7-1 2 1 9-2 3 1v-2l6-1 8 1 3-4 4-1 11-3 4-1 5-1v-2l7 2 4 1v2l-5 3h3l6-3 6-2 1 5-3 1-1 2v-2h-2l1 6 7 1h5 3l4-2 1-2 2 1 1-2 8-3-1 3-21 11-24 14-19 12-19 13-16 12-18 14-15 14-10 9-20 20-9 11-12 14-8 11-13 18-10 16-12 20-10 18-15 33-9 23-9 25-10 35-7 31-3 16h-2v-19l2-9 2-3 2-13 1-1v-8l-1-2h-2l-2 2-2-7-1 3h-2v3l-8 1-5 1-4 2-1 2-1-4h2v-5h-3l-1 4-4 3v-6l-1-2-3 1v2h-2v3l-6 1 1-5-3 2-1-4-6 3-1 2-11 4h-5l-1 6-4 4-5-1-3-1-3 1-1 2-2-7-2-1-4 3h-2l-1 3-5-1-4-1-4 2-2-3v-2l-4-1-1 3-1-4h-6l-8 2-2-1v3l-7 2-1-3 3-2v-2h-4v-2l-7 3-1 1 6 1-2 3-7-1-5 6-3 1-4-1 2 1v2l-4 1-1-3v-3l-7 4-6 2-1-3h-2l-1 5-4 4-1-4 1-8h-3l-1-1-3 3h-2l-2 6-6 2-1 2h-2v3h-3l-1 5-11 3-7-2-3-1 1-2h2v-7h2l-1-2-4 1-4-1-1 1-7-1-1-4v3l-4 1-3-1v-2l-8-1v-2l-5 1-4-2v-2l-5 1 2 4h2v2h2l2 6-7 1-1-2-5-1-2-4-5-1-2 5-5 1-3-9-6 1-2-4-2-3v-2l-4-2v3h-3l-1 4-1-2-13-1-5-2-4 2-4-1-1 2-3-5 1-1-4-1-1 4-1 2-9 1-6-2v-2l-3 1v3l-9 2-3 3h-5v2l-5 1-6-1-1 3h-3l-1-2-3 1v2l-7 2h-7l-5 3-3-2-5 4-5-3-2-5-6-2-4 3-9 2-3 5 2 1-2 2-10 2-10 1-13 1-1 1h-6-3l-9 1-5 1-2-1v-2h-20l-4-2-11-1-8-2v-2l-5 1-7-3-4-6-6 1-6-5-8-1-10-4-3-3-1-6h-4l-1 5-4 4h-3l-3 1v6l-11 3h-4l1 4h-2v2l-5 4h-6-3l-5-1-1-2-3 1-1 2h-2l-2 4-1 1-5-1-2-3v-3l-3 2h-3l-1 3-2-4v-4h-2l-1-2-4 1-2 9-5-2h-4l-1 2h2v2l-4 1-4 4 1 2h-2l1 5-2 3-2-4-2 1-2-6-3-2-1-6-2 2-1 23-1 280h-1v-520l3-27 5-26 8-30 10-27 10-23 11-21 13-21 11-16 14-18zm679 98-16 3-15 6-13 9-11 11-7 10-7 14-4 16v23l5 19 8 15 7 9 9 9 14 9 12 5h3l8-14 13-22 12-18 12-17 9-12 12-14 8-10 9-9 5-6-1-5-9-10-12-9-14-7-14-4-7-1zm-292 66-16 4-13 7-13 11-8 9-8 16-4 13v24l4 15 7 14 8 10 7 7 11 7 11 5 17 4h16l17-4 16-8 13-11 8-10 6-11 4-12 1-5v-22l-3-14-8-16-8-10-10-9-11-7-13-5-9-2zm-288 65-15 4-11 6-11 9-8 10-8 16-3 16v8l4 20 8 15 11 12 10 7 12 5 14 3h14l14-3 14-6 10-8 8-8 8-14 4-13 1-6v-12l-2-12-4-11-6-11-11-12-10-7-12-5-12-3z" fill="#B7488D"/>
<path transform="translate(1751,82)" d="m0 0h4l-1 11-10 61-15 75-12 52-15 59-9 31-12 35-13 30-8 17-13 23-14 22-9 12-10 13-13 15-20 20-11 9-16 13-20 14-23 13-24 13-31 14-27 10-35 12-44 12-44 11-42 9-36 9-36 11-41 15-25 11-29 14-24 13-20 12-17 12-18 14-10 9-8 7-9 8v-3l8-12 12-14 9-11 14-15 12-13 13-12 11-9 13-11 18-13 26-17 17-10 25-13 37-16 31-12 27-9 48-15 49-15 42-14 29-12 16-7 16-8 20-11 15-10 18-13 13-11 8-7 18-18 9-11 12-14 11-15 11-17 11-19 12-24 10-26 7-23 6-29 3-22 1-18v-23l-2-26-4-26-2-7-4 5-12 19-12 16-3-1-4 4-2-1 2-5-4 1-2 3-8 2-2 4-4-1-1-2-3 2-1-6-7 2-1 2v-2l-4-1-8 5-4 3-4-2-2-5-9 2-4-1-2-3h-8l-6-2-5 2-9 2-1 6-7 2-5 1-2 3h-3l-1 3-5 2-2 2-4-3 1-2-6 1-5-3-9 3v-2l-3 1-3-3-6 1v-3h-15l-5-2h-4v-2l-3 1-2 5-4-1-1-3-4 1-7 2h-2v2l-4-2h-3l-1 4h-3l-2-3-5 1-8 2-4 2h-14l-13 3h-4l-4 2h-6l-5 1-9 5-5-2-5 3v-2l-6 3-6 1-5 2-1-3v3l-2 1-2 5-8-1 1-6-2 1-9 1-4 4-6 3h-8v-3l2-2-7 2-4-1-10 1-1 3h-16l1-2 8-1h4l-2-3-6 1v-2l-7 1-3 3 4 5h-6v-2l-4 1v2l-7-1-2 3h-5l-1-4 3-1-2-1v-2l-6 4h-2l2 4-3-1v-2l-4 1 1-3h2v-2l-4 2h-5v2h-4v-3l-5 2-3-1h-3l-1 2h-3v2l6-1 3 4h-11l-3-2 4-1-2-3h-3v-2h-7v2l-4-1-3-2-5 1 1 4-6-1-4 1-1-2-4 1h-3l-9 2v2l-7 2-2 1-2-1v-2l-7 1v2h-11l-5 1-4-2-9 2-1 1h-6l-1-1-3 4-3-3-5 2-10 2-1-4-7 6-7-2-2-3h-10l-2-1 1 7h-11l-5-4-5-1-1-2-8-1-2 5-4-2-2 3h-2l-2-5-6-4-5 3-7-1-2-2h-3l-2 2-1-2-11 2-6-1-5-1-3-1-3 4-9 3-1 3h-5l-2-4v-3l-10 2 1 5-2 3-3-1-4-5h-11l-3-1v-4l2-1-4-4 4-2v-5l-7-3v2l-9 2-1 4-4 1 1 3-6 2v2l-5 1-2 2v-2l-3-1 1-6 7-1 1-4h-2l-1 2-1-3-7-1-1 2-4-1-8 3-4 4h-4l-7 1-2-1v-2l-4 1-9 3-4-2h-2v-2l-6-2-3 4-5-1-3-2-2 1-2-2-5 3-4-1h-2l-2 2-10 2h-3l-3-3-7 2h-22l-1-1h-6l-10 4h-2l-1 2-5-4 4-2 4-1h-21l-1 2h-2l1 3-3 1-4 1v-2l-4-2v-2h-2v2h-3l-1 2h-6l-7 4-4-2-1 2-7 1v2h-3v2l-5 1h-9v2l-7 1h-6v-4l-10 2-4-1v2l-5-1-3 1v-2l-11 2-4-1 3-1v-2l-2-1h3v-2h-2v-3l-3 1-2-2 279-46 448-74 67-11 182-30 182-30 49-8z" fill="#DC606F"/>
<path transform="translate(1922,151)" d="m0 0 2 1 2 13 7 71 8 77 7 80 5 65 7 100 4 63 6 110 1 25v27l-2 30-4 28-6 26-7 25-10 26-10 23-12 22-13 21-14 20-13 16-11 13-9 10-11 12-8 7-13 12-14 11-13 10-15 10-16 10-18 10-16 8-21 9-28 10-29 8-35 6-34 4-84 6-479 35-9 1-291 291-7 8-10 9-1 2h-2l-2 4-16 16-8 7-6 7h-2l-1 3-8 7-4 5h-2l-2 4-36 36-7 8-10 9-3 1 2-5 8-10 13-15 12-14 11-13 9-11 36-42 9-11 9-10 8-10 12-14 11-14 10-11 9-11 12-14 11-14 10-11 9-11 9-10 9-11 13-15 9-11 11-13 9-11 13-15 11-14 13-15 9-11 11-13 12-14 9-11 14-17 13-15 14-17 9-10 5-6 140-15 59-6 168-16 66-7 144-14 53-6 29-6 28-8 21-8 23-11 23-13 20-13 13-10 14-11 6-5 27-27 9-11 14-18 11-16 12-20 11-21 9-21 8-22 8-32 5-29 2-28 2-224 2-273 1-109z" fill="#2EC1DE"/>
<path transform="translate(748,1119)" d="m0 0h5l7 5-1 2 3 2 1 6 5 1 3-1 4-4 2 1v2l-1 1 4 1 2 4v2l5 1 1-2 5-1 2 1h5l2 6 1 8h4l3 3 3 1h16l6-2h15l7-3h5l1 1h9l7-3 8-2 3 1 5-2 2 1 1-3h3l7-1 6-2 5-2 2 1v2l-2 1-3 7-11 12-8 10-9 10-9 11-12 14-13 15-9 11-10 11-8 10-10 11-8 10-10 11-9 11-24 28-9 11-11 12-8 10-10 11-8 10-10 11-11 14-12 13-9 11-9 10-9 11-12 14-13 15-9 11-10 11-8 10-10 11-9 11-12 14-13 15-12 14-13 15-9 11-9 10-9 11-9 10-8 10-10 11-9 11-9 10-12 14-12 15h-2l2-10 10-34 12-42 11-38 17-59 30-104 14-48 26-90 17-59 4-12h3v2h4l2-6 6-4 10-15 5-4 10-4 5-3h3l2-4 5-2 7-1 14-7 8 1 7 3 11-4 4-2 6-1 1-2 9-1 4-4 3-5 2-6 4-2 1-5 4-3h10l4-6 5-4z" fill="#8127C1"/>
<path transform="translate(1850,72)" d="m0 0h2v690l-2 26-4 22-7 27-7 20-2 2-1-2 1-6v-5l2-3 1-8 2-2-3-2 2-9h-2v-3l-8 1 1-7h-2v2l-3 1-2 2 1-5-4 3 1-7-3 1-2 5-4 3-2-6-2-4 1-2-3-3h-6l-5 2 1 3-3 1-1 2v-3l-4 1-2 6-2 2-5-1-4-2-4 2v5l-2 3-11 1-10-1h-17l-3-1-3 3-3-4-3-2-5-1v3l-7 2-3 3-5-2-6 1-2 6-8 2-1 2-11-1 1-7 5-2-2-1h-3l-2 5-7 2h-4v2l-5 1v2l-4 1-1 3-8 4-4 5-7 4 1-4-3-1-5 1-1 4-4 1-2 2h-3l-1-1h-3l-1-3h-5l-1 5-2-1-1 2 2 1-5 1-1 4-4 1h5l1 2-3 3-3-1-1-1-4 1v1l-11 1 1 3h-3-5v2l2 1-8 4h-3l-7 3-6 3h-2v2l-7 1-2 2v-2l-4-1 19-9 21-12 20-13 16-12 13-11 11-9 21-21 8-10 11-13 10-14 13-20 9-15 13-25 10-24 10-30 14-49 17-69 19-88 18-90 17-89 9-50 10-55 13-78z" fill="#B7488D"/>
<path transform="translate(1665,434)" d="m0 0 2 1-3 9-8 16-12 21-14 21-12 16-11 13-9 10-17 17-11 9-16 13-20 14-23 13-24 13-31 14-27 10-35 12-44 12-44 11-42 9-36 9-36 11-41 15-25 11-29 14-24 13-20 12-17 12-18 14-10 9-8 7-9 8v-3l8-12 12-14 9-11 14-15 12-13 13-12 11-9 13-11 18-13 26-17 17-10 25-13 37-16 31-12 27-9 48-15 49-15 42-14 29-12 16-7 16-8 20-11 15-10 18-13 13-11 8-7 18-18 9-11 12-14 12-16 7-5 2-7h2l-1 4h3l1 5v3 3l4-1 1 1 4-4 3 2 1-4 3-2v5h2l1-3h2v-2h7v-2l5-1h7l2 6 4-2h3v-2h2v-3h2v-6l6 1v-2z" fill="#B7488D"/>
<path transform="translate(1922,151)" d="m0 0 2 1 2 13 7 71 8 77 7 80 5 65 7 100 4 63 6 110 1 25v27l-2 30-4 28-6 26-7 25-10 26-10 23-12 22-13 21-14 20-13 16-11 13-9 10-9 8-2-2 1-4 5-12 1-2-4 2h-3l-1-7 2-4-1-2 1-10-2-2-7 7-1-4v-6l3-6 5-5 5-10 1-5 1-7 5-8 4-5h2l2-5 4-7 5-10 4-12 5-13 3-10 1-4h-2l-1-4 2-2h3l4-9-3-1 1-9 7-19 8-32 5-29 2-28 2-224 2-273 1-109z" fill="#499DE2"/>
<path transform="translate(1850,72)" d="m0 0h2v557h-1l-1-149-3-5 1-2h-2l-2-3h-5l-2-3h2l2-5-1-3-4 1-1 4-1 2h-4l-3 7-4 1-2-5-1 2-9-2v2l-5-1-10 7-4 4-1-3 1-2-2-6-4 2-1 4-5-1 3-3v-2l-4-4-1 6 1 2-4 3 2-12 15-73 11-57 13-68 9-50 10-55 13-78z" fill="#CD5577"/>
<path transform="translate(1960,751)" d="m0 0h6l1 3 2-1v3h2v27l-2 30-4 28-6 26-7 25-10 26-10 23-12 22-13 21-14 20-13 16-11 13-9 10-9 8-2-2 1-4 5-12 1-2-4 2h-3l-1-7 2-4-1-2 1-10-2-2-7 7-1-4v-6l3-6 5-5 5-10 1-5 1-7 5-8 4-5h2l2-5 4-7 5-10 4-12 5-13 3-10 1-4h-2l-1-4 2-2h3l4-9-3-1 1-9 7-19 8-32 5-26 5-5 6 1 2 2h10l2-8 3 1 3-8 4-1 5 2-2-3v-8l3-3 2-3 4 2v2h2l-3-10z" fill="#3AAEDF"/>
<path transform="translate(1729,215)" d="m0 0h1v9l-13 57-15 59-9 31-12 35-13 30-2 2-1-4-1 2-2-1v2l-4 1-1-1-1 5h-2v3h-2v2l-8 3-1-6h-12v2h-7v2h-2v5l-1-2h-2l-1-4-3 5-4-1-4 4h-4l-1-4v-4l-1-2 1-2h-3l1-4h-2l-2 9-4 2h-3l7-10 13-22 13-26 10-26 7-23 6-29 4-26 3-8h2l-2-8 2-6 1 2h2v-6l1-3v-8l1-3h6v3l1 10 4 2h2l1-2 7-1 3-9 1-2h2v-5l7-1 1-5h9l6-3 3-3 3-1 2 1v-5l4-4 2-5 3 1 1 2z" fill="#CD5577"/>
<path transform="translate(929,1235)" d="m0 0h1l1 5 2-1-1 4-4 5-1 3-5 5 2 1 1-2v2l4 1v2l9-4 2 1-3 2 2 1 5-1 2-7 5-5 1 2h-2l2 4 8-7 4-1 2 4-2 3 3 2v4l2 2-243 243-7 8-10 9-1 2h-2l-2 4-16 16-8 7-6 7h-2l-1 3-8 7-4 5h-2l-2 4-36 36-7 8-10 9-3 1 2-5 8-10 13-15 12-14 11-13 9-11 36-42 9-11 9-10 8-10 12-14 11-14 10-11 9-11 12-14 11-14 10-11 9-11 9-10 9-11 13-15 9-11 11-13 9-11 13-15 11-14 13-15 9-11 11-13z" fill="#27CFDE"/>
<path transform="translate(1850,72)" d="m0 0h2v557h-1l-1-371-5 1v-8l-3-2-3 1-1-1-1 4-7 7v8l-2 4-2 1-3 10-1 3-4 1-1 4-2 2h-3l1-10 22-121 13-78z" fill="#DD606F"/>
<path transform="translate(525,286)" d="m0 0 2 1-1 4 3 1-1 4-11 2h-8l-3 2-4-1 6-3 1-1 11-1-2-2-1 2h-7l-2-3-4-1-3 5v2l-8-1v-2h4l-1-3-5 1v2h-10l-6 2-1 3-7-1v2l-4-1v-2l-3 1-1-3 49-8h5l-1 3h3l5-3z" fill="#DD6474"/>
<path transform="translate(525,286)" d="m0 0 2 1-1 4 3 1-1 4-11 2h-8l-3 2-4-1 6-3 1-1 11-1-2-2-1 2h-7l-2-5 4 1h3l5-3z" fill="#DC5F6F"/>
<path transform="translate(1918,630)" d="m0 0 2 3v18l-2 32h-1v-35z" fill="#33BADE"/>
<path transform="translate(1892,879)" d="m0 0 5 5-5 9-4 1-3 3 1-5z" fill="#33C4DF"/>
<path transform="translate(1094,489)" d="m0 0 7 1-1 4-3 3-4 3-5-1 1-4 4-1z" fill="#CC5478"/>
<path transform="translate(838,275)" d="m0 0h7l-1 4 3 1-1 3-2-1 1-2-3 1h-3-2v2l-3 1-4-3v-2l6-2z" fill="#DC5F6F"/>
<path transform="translate(957,1262)" d="m0 0 6 1-1 4-7 7h-3v-5l2-4z" fill="#2DC3DE"/>
<path transform="translate(478,292)" d="m0 0m-6 1h6l-4 5v1l-7-1v2l-4-1v-2l-3 1-1-3z" fill="#DC6171"/>
<path transform="translate(981,1237)" d="m0 0 6 1 2 2-7 7-2-1v-2l-3-1 1-5z" fill="#27CEDE"/>
<path transform="translate(881,505)" d="m0 0 7 1 2 2v3h-9l-4 1h-4l1-2h4v-4z" fill="#CD5578"/>
<path transform="translate(884,516)" d="m0 0h5l3 3-1 3-9-1v-4z" fill="#CD5578"/>
<path transform="translate(603,1144)" d="m0 0 4 1 1 5-7 4 1-9z" fill="#812DC0"/>
<path transform="translate(873,515)" d="m0 0 3 1v6l-3 3h-4v-4l6-1v-2l-6 2v-2h2v-2z" fill="#CB5479"/>
<path transform="translate(337,455)" d="m0 0 5 2v3l-6 3-3-1z" fill="#B7488E"/>
<path transform="translate(520,285)" d="m0 0h7l-4 3-5 1-3 2h-3l-2-1 4-4z" fill="#D15875"/>
<path transform="translate(1904,843)" d="m0 0h2v2h2v7l-4-1-2 1z" fill="#2EC2DE"/>
<path transform="translate(609,843)" d="m0 0 2 1v7l-3-1-1 2-1-2v-6z" fill="#B7488E"/>
<path transform="translate(1832,802)" d="m0 0 4 2-2 4-5 2v-6z" fill="#A038A6"/>
<path transform="translate(299,458)" d="m0 0h9l3 3-18-1v-1z" fill="#CD5578"/>
<path transform="translate(199,431)" d="m0 0 4 1v3l-5 2-3 1-2 4-2-1z" fill="#D15C7A"/>
<path transform="translate(1135,479)" d="m0 0v3l-13 6 2-5 3 1 1-2z" fill="#C14E85"/>
<path transform="translate(1091,473)" d="m0 0 8 1v2l-5 3-3-1z" fill="#C04D84"/>
<path transform="translate(978,1230)" d="m0 0 2 1-2 7-3 3-2-4 1-3z" fill="#27CFDE"/>
<path transform="translate(1597,439)" d="m0 0 1 2-2 7-4 2h-3z" fill="#D15875"/>
<path transform="translate(946,1214)" d="m0 0 2 1 1 4h-2v2l-4 1-2-2z" fill="#28CDDE"/>
<path transform="translate(1879,908)" d="m0 0h3l-2 5-3 5h-1l1-7z" fill="#39B1DE"/>
<path transform="translate(868,278)" d="m0 0 2 4-2 2-4-1v-2l-2-1z" fill="#CD5578"/>
<path transform="translate(989,823)" d="m0 0" fill="#DD606F"/>
</svg>
